<svg width="16" height="16" viewBox="0 0 16 16" fill="none" xmlns="http://www.w3.org/2000/svg">
<path d="M10 6.57155H12V4.57155" stroke="#FCFCFC" stroke-linecap="round" stroke-linejoin="round"/>
<path d="M5.14285 5.27344C5.49627 4.96036 5.916 4.71199 6.37803 4.54253C6.84006 4.37307 7.33532 4.28584 7.83549 4.28584C8.33567 4.28584 8.83093 4.37307 9.29296 4.54253C9.75499 4.71199 10.1747 4.96036 10.5281 5.27344L12 6.57156" stroke="#FCFCFC" stroke-linecap="round" stroke-linejoin="round"/>
<path d="M6 9.4287H4V11.4287" stroke="#FCFCFC" stroke-linecap="round" stroke-linejoin="round"/>
<path d="M10.8571 10.7268C10.5037 11.0399 10.084 11.2883 9.62197 11.4577C9.15994 11.6272 8.66467 11.7144 8.1645 11.7144C7.66433 11.7144 7.16906 11.6272 6.70704 11.4577C6.24501 11.2883 5.82528 11.0399 5.47186 10.7268L4 9.4287" stroke="#FCFCFC" stroke-linecap="round" stroke-linejoin="round"/>
</svg>
